<svg version="1.1" id="Layer_1" xmlns="http://www.w3.org/2000/svg" xmlns:xlink="http://www.w3.org/1999/xlink" x="0px" y="0px"
	 width="100%" viewBox="0 0 1024 1024" enable-background="new 0 0 1024 1024" xml:space="preserve">
<path fill="#000000" opacity="1.000000" stroke="none" 
	d="
M357.178650,202.148132 
	C390.308044,175.391113 427.693787,158.447845 469.268524,152.064636 
	C542.779724,140.778122 609.259094,157.789490 667.638977,204.521729 
	C671.797424,207.850494 675.934082,211.266052 679.664246,215.051758 
	C682.758667,218.192230 686.162781,219.036850 690.402771,219.063217 
	C707.222290,219.167831 724.035583,218.788818 740.866028,219.520416 
	C769.065979,220.746277 795.667664,244.695770 799.438416,272.723267 
	C800.109131,277.708466 800.320190,282.653015 800.321472,287.641144 
	C800.328796,316.804932 800.328308,345.968689 800.323242,375.132477 
	C800.317932,405.645844 782.152222,429.539703 752.614441,437.490112 
	C748.825134,438.510010 747.363281,440.448883 746.396729,444.021973 
	C721.528137,535.955688 663.912231,596.164062 572.050903,622.454102 
	C543.814026,630.535339 514.752014,631.860413 485.512756,628.475098 
	C406.726776,619.353088 347.463135,579.335999 305.022430,513.494934 
	C287.704651,486.628754 277.611359,456.756836 272.443146,425.134460 
	C269.494934,407.095551 268.560760,388.953705 269.917053,370.913879 
	C274.792725,306.065063 301.221100,251.544662 350.061432,208.211411 
	C352.303436,206.222214 354.615845,204.312363 357.178650,202.148132 
M535.739197,382.206848 
	C535.713440,348.546326 535.638306,314.885742 535.678284,281.225311 
	C535.708069,256.132599 552.689941,232.292572 576.266052,223.470383 
	C584.843750,220.260605 593.658752,219.044403 602.668213,218.968063 
	C619.431763,218.826019 636.197388,218.927292 653.559265,218.927292 
	C587.010559,161.787033 466.854584,143.652573 374.156555,213.655685 
	C285.639954,280.501129 271.735504,391.900269 304.400726,468.842285 
	C304.961121,468.471619 305.599609,468.218933 306.000824,467.759125 
	C316.892578,455.277161 330.801056,447.286011 345.744568,440.728729 
	C355.062195,436.640045 363.980164,431.758911 372.286865,425.830872 
	C374.324188,424.376984 376.591766,423.010651 377.617859,420.668427 
	C382.147919,410.327667 385.154877,399.643707 382.956146,388.237030 
	C381.266571,379.471802 377.188690,371.612732 372.841583,363.902130 
	C361.032684,342.956451 356.025146,320.767639 362.432373,297.159332 
	C373.430389,256.635803 412.109161,238.206573 449.841675,244.234024 
	C482.769348,249.493973 506.855621,277.572296 502.466919,315.410828 
	C502.262177,317.176147 502.603607,319.063812 502.990387,320.828827 
	C504.989807,329.952850 509.933502,337.684875 514.713257,345.512665 
	C521.064209,355.913635 520.597107,357.424042 510.010376,362.826904 
	C509.417145,363.129669 508.856201,363.524933 508.232239,363.733490 
	C504.298523,365.048096 503.395081,367.815033 503.197021,371.812408 
	C502.712799,381.584869 502.169006,391.386200 499.416992,400.910400 
	C497.505280,407.526398 493.628235,411.488098 486.618469,412.417786 
	C480.355804,413.248444 474.133209,414.246948 467.792206,414.455658 
	C465.129700,414.543274 461.904053,414.226105 460.456909,417.463226 
	C456.526489,426.255096 459.554474,434.117279 468.439301,437.669189 
	C480.493439,442.488007 492.737213,446.844055 504.710815,451.850250 
	C526.287598,460.871521 540.933594,476.243378 546.864441,499.279266 
	C550.194763,512.214233 551.454529,525.447937 552.233032,538.706543 
	C553.198547,555.148865 553.472595,571.632874 554.520203,588.068604 
	C554.897156,593.984253 555.080383,599.956726 555.556213,605.904541 
	C590.103699,601.278015 641.351807,577.408386 677.317078,536.631592 
	C701.797729,508.875885 718.743713,477.155090 727.617615,440.701080 
	C725.881836,440.506439 725.075500,440.337555 724.268982,440.336945 
	C702.438660,440.320862 680.608093,440.362213 658.778137,440.270477 
	C655.978516,440.258698 654.098328,441.487305 652.241943,443.283173 
	C638.231201,456.837250 624.084167,470.252411 610.207703,483.942169 
	C605.224304,488.858521 599.929871,492.352875 592.924133,489.533264 
	C585.834473,486.679871 584.507996,480.369843 584.635010,473.412109 
	C584.796204,464.582916 584.695190,455.748474 584.667969,446.916443 
	C584.636047,436.558167 585.406616,438.824799 577.029846,435.788696 
	C575.310974,435.165741 573.611389,434.462494 571.967651,433.663330 
	C550.781006,423.362152 539.138245,406.218140 535.739197,382.206848 
M643.500061,237.362137 
	C629.170105,237.361359 614.839722,237.426346 600.510559,237.320282 
	C596.128662,237.287857 591.894409,237.975494 587.711182,239.066193 
	C567.724487,244.277222 553.415405,263.008209 553.367859,284.176636 
	C553.300842,314.002686 553.337280,343.829010 553.354187,373.655212 
	C553.368652,399.122498 569.765503,417.972198 595.080139,421.672760 
	C600.596924,422.479218 603.195557,425.272949 603.296387,431.130829 
	C603.445557,439.792938 603.308960,448.459595 603.379944,457.123657 
	C603.392883,458.700226 602.803955,460.436432 604.043030,461.884735 
	C606.016663,461.847656 606.968811,460.308960 608.115662,459.213348 
	C618.715515,449.087067 629.326233,438.970551 639.805237,428.719818 
	C644.702209,423.929565 650.224487,421.506256 657.222351,421.559540 
	C682.881348,421.755035 708.542969,421.698029 734.203247,421.627045 
	C762.449341,421.548950 782.622009,401.251953 782.644348,372.981232 
	C782.666992,344.321411 782.669678,315.661560 782.644531,287.001770 
	C782.618896,257.755066 762.240234,237.386658 732.978943,237.363174 
	C703.486023,237.339493 673.993042,237.361649 643.500061,237.362137 
z"/>
<path fill="#000000" opacity="1.000000" stroke="none" 
	d="
M80.528053,749.776245 
	C86.681541,719.770081 111.305367,699.805542 141.580231,699.602356 
	C158.364716,699.489746 173.565643,703.285645 185.774139,715.617249 
	C190.307312,720.196167 193.371246,725.703308 196.046021,731.471741 
	C197.139008,733.828857 196.843109,735.480408 194.035217,736.464233 
	C189.797195,737.949097 185.581238,739.558777 181.517990,741.461609 
	C178.146042,743.040771 176.268570,742.338501 174.244049,739.133789 
	C168.278687,729.690674 160.026352,723.682251 148.538040,722.106018 
	C128.709320,719.385254 112.486061,729.117859 106.787216,748.599304 
	C102.941742,761.744934 102.753510,775.213684 107.040840,788.426270 
	C111.775558,803.017639 124.881630,812.207520 140.216522,812.771912 
	C154.489029,813.297241 165.979340,808.512695 174.261444,796.751709 
	C176.236221,793.947510 178.297272,793.337402 181.438065,794.669495 
	C186.899734,796.985779 192.483154,799.015076 198.585373,801.386047 
	C191.017624,815.175537 180.793060,824.867249 166.767029,830.449097 
	C132.368622,844.138367 87.691887,826.272705 80.144997,784.845459 
	C78.040161,773.291443 77.715683,761.719360 80.528053,749.776245 
z"/>
<path fill="#000000" opacity="1.000000" stroke="none" 
	d="
M336.420898,769.917236 
	C337.604584,776.041016 338.541595,781.675537 337.696594,787.619263 
	C337.131165,791.596619 335.445984,792.455200 331.866455,792.431946 
	C313.202057,792.311035 294.536499,792.368530 275.871338,792.371582 
	C268.800262,792.372742 268.585846,792.689697 270.344086,799.331238 
	C272.180969,806.270020 276.391724,811.288879 283.034637,813.755066 
	C294.969147,818.186035 308.268585,816.838623 316.946960,805.739197 
	C317.651642,804.837891 318.461273,804.018555 319.446655,802.908142 
	C324.253693,805.404297 328.935211,807.881226 333.659882,810.272888 
	C336.870148,811.897888 335.151733,813.756714 333.958282,815.522644 
	C327.159668,825.582336 317.474976,831.166870 305.821136,833.869324 
	C285.572968,838.564575 263.156952,830.734924 252.448196,814.154236 
	C235.749771,788.299561 244.709091,743.633179 281.929077,736.391052 
	C306.727295,731.565979 329.457001,742.529968 336.420898,769.917236 
M312.687500,766.878296 
	C307.062500,756.004395 297.103729,751.587585 285.583984,754.857605 
	C276.646179,757.394714 269.967682,766.376465 270.506470,775.643677 
	C282.604004,775.643677 294.734650,775.645142 306.865295,775.643127 
	C315.409607,775.641724 315.409607,775.639648 312.687500,766.878296 
z"/>
<path fill="#000000" opacity="1.000000" stroke="none" 
	d="
M734.367310,827.720215 
	C718.309265,813.194275 722.291748,787.674072 741.688477,778.919006 
	C749.262085,775.500671 757.263245,774.411621 765.521973,774.615479 
	C771.181274,774.755188 776.847900,774.576904 782.509766,774.649048 
	C785.465088,774.686646 786.628906,773.945251 786.036377,770.534973 
	C784.094482,759.358032 774.619751,753.395935 761.984924,755.646301 
	C755.103638,756.871887 749.461853,759.960632 745.386658,766.588196 
	C739.883667,763.377808 735.234985,759.441650 730.683716,755.439697 
	C728.728455,753.720520 730.639771,752.087952 731.694641,750.704712 
	C738.590027,741.663025 748.269470,737.185852 759.088745,735.951904 
	C769.312622,734.785889 779.719116,734.830505 789.369812,739.796448 
	C802.200134,746.398499 809.267700,756.625427 809.320496,771.237244 
	C809.388550,790.057861 809.227783,808.879639 809.364441,827.699463 
	C809.393433,831.686707 808.313110,833.572815 804.028748,833.246582 
	C800.218994,832.956543 796.353516,832.920410 792.545593,833.208618 
	C787.910889,833.559509 786.060120,831.690430 786.634033,827.153931 
	C786.734741,826.357910 786.560181,825.527039 786.481812,824.181396 
	C769.810913,837.117859 752.646545,839.187561 734.367310,827.720215 
M749.011902,809.218567 
	C753.036865,817.478577 760.516602,817.124573 767.922974,816.663879 
	C779.289246,815.956848 787.440796,806.417664 786.685669,795.104797 
	C786.525818,792.709290 785.864624,791.340637 783.231567,791.372131 
	C776.920776,791.447693 770.566589,790.980225 764.306458,791.559021 
	C752.093567,792.688110 747.548462,797.909119 749.011902,809.218567 
z"/>
<path fill="#000000" opacity="1.000000" stroke="none" 
	d="
M432.347748,825.916138 
	C432.257935,833.179688 432.257935,833.183777 425.397095,833.190796 
	C422.065002,833.194153 418.715118,832.959229 415.405304,833.227234 
	C411.125214,833.573914 409.074860,832.074585 409.615295,827.607727 
	C409.707916,826.841980 409.427338,826.031006 409.204956,824.407166 
	C403.267639,828.624756 397.754364,832.528564 390.948853,833.870300 
	C377.694092,836.483521 365.066833,835.371094 355.114594,825.466003 
	C341.145752,811.563416 346.634277,786.759094 365.031036,778.738708 
	C371.178528,776.058594 377.624969,774.573425 384.398132,774.634094 
	C391.561401,774.698242 398.726257,774.582153 405.889679,774.638184 
	C409.091827,774.663269 409.914337,773.210083 409.367645,770.223633 
	C407.404053,759.496460 397.288330,753.542358 384.820435,755.650513 
	C377.856659,756.828003 372.431061,760.248474 368.120056,766.518372 
	C362.753174,763.095642 358.173981,759.067017 353.636230,755.035583 
	C351.863617,753.460876 353.696198,751.998840 354.634338,750.747375 
	C361.709534,741.309021 371.741364,736.992126 382.960938,735.856506 
	C391.005219,735.042297 399.207947,735.098083 407.198700,737.618774 
	C422.814819,742.545044 432.335815,755.154175 432.345245,771.446716 
	C432.355682,789.440063 432.347656,807.433411 432.347748,825.916138 
M409.117889,802.382507 
	C409.295319,800.744080 409.413666,799.096619 409.661316,797.468872 
	C410.382141,792.730896 408.545044,790.809875 403.651520,791.287354 
	C399.867004,791.656555 396.015228,791.460632 392.198517,791.345032 
	C387.139343,791.191772 382.261719,791.855347 377.720459,794.180786 
	C373.053467,796.570618 371.195282,800.629639 371.400238,805.674072 
	C371.596252,810.499756 374.224304,813.942444 378.611725,815.501526 
	C388.491577,819.012451 404.553833,816.646240 409.117889,802.382507 
z"/>
<path fill="#000000" opacity="1.000000" stroke="none" 
	d="
M556.000000,702.785706 
	C574.488525,702.790161 592.478821,702.930176 610.464478,702.705200 
	C615.078613,702.647522 616.784912,704.107910 616.392944,708.689636 
	C616.081787,712.327332 616.069702,716.036438 616.396729,719.671326 
	C616.806641,724.227234 614.821777,725.390686 610.598389,725.282593 
	C601.277100,725.043945 591.940674,725.381897 582.620361,725.124207 
	C578.211853,725.002441 576.910889,726.581177 576.933228,730.916077 
	C577.096375,762.561646 577.050293,794.208435 577.048035,825.854797 
	C577.047485,833.179932 577.007996,833.184998 569.534729,833.198914 
	C565.370728,833.206726 561.198303,833.028625 557.045166,833.239197 
	C553.117188,833.438293 551.890137,831.867920 551.905640,827.970825 
	C552.031860,796.324951 551.973267,764.678345 551.982178,733.031921 
	C551.984436,725.179016 552.003174,725.183411 544.002380,725.183777 
	C535.674377,725.184082 527.337280,724.940430 519.021790,725.260071 
	C514.254028,725.443359 512.876892,723.489197 513.076111,719.101685 
	C513.308960,713.972351 513.130493,708.824341 513.130493,702.785522 
	C527.717224,702.785522 541.608643,702.785522 556.000000,702.785706 
z"/>
<path fill="#000000" opacity="1.000000" stroke="none" 
	d="
M921.704346,830.996948 
	C901.572327,838.496521 883.431213,836.096069 867.417297,821.853638 
	C861.630005,816.706604 861.753479,816.075928 867.573853,811.368225 
	C869.905090,809.482788 872.439941,807.820374 874.603088,805.763062 
	C877.245422,803.250061 878.849365,803.995422 880.997131,806.559082 
	C888.605591,815.640686 900.823792,819.216248 910.641541,815.659302 
	C915.098938,814.044312 918.361267,811.220886 918.479675,806.368408 
	C918.593750,801.692200 915.495117,798.866028 911.285889,797.163452 
	C903.986877,794.211182 896.124207,793.522278 888.613098,791.421936 
	C883.949097,790.117676 879.300476,788.800598 875.273254,785.993042 
	C861.836121,776.625061 861.234924,756.219666 874.118713,744.699341 
	C888.609375,731.742126 921.236389,731.651733 934.024597,748.650696 
	C935.216492,750.235168 936.643372,751.668884 937.200378,754.512512 
	C932.693176,757.333618 927.973511,760.324707 923.213379,763.249878 
	C921.128113,764.531372 920.336365,762.735229 919.256042,761.490601 
	C912.949097,754.224426 904.829407,752.999023 896.056396,755.141235 
	C892.136902,756.098328 888.536011,758.132935 888.298462,763.088196 
	C888.055420,768.157593 891.287842,770.956177 895.357483,772.260376 
	C902.144592,774.435364 909.170837,775.863464 916.094482,777.613403 
	C917.545044,777.980103 918.998108,778.343018 920.432190,778.767944 
	C930.505554,781.752625 938.308350,787.238403 940.213989,798.297546 
	C942.463257,811.350952 937.551514,821.414368 926.464966,828.514832 
	C925.071228,829.407410 923.529968,830.069763 921.704346,830.996948 
z"/>
<path fill="#000000" opacity="1.000000" stroke="none" 
	d="
M207.648651,801.999878 
	C207.650024,768.353149 207.751068,735.205811 207.547165,702.060364 
	C207.516251,697.036621 208.905029,695.121338 214.005569,695.607239 
	C218.132584,696.000427 222.330322,695.806519 226.489197,695.659851 
	C229.714203,695.546265 230.776810,696.745605 230.749741,700.058472 
	C230.510361,729.351990 230.326416,758.645569 230.813416,787.940979 
	C231.034653,801.249695 230.702942,814.566833 230.750092,827.879700 
	C230.763901,831.776001 229.522675,833.633484 225.253571,833.276001 
	C220.952255,832.915894 216.592651,833.034729 212.269943,833.215393 
	C208.759155,833.362183 207.576157,831.852112 207.622528,828.483582 
	C207.741714,819.823914 207.653992,811.161316 207.648651,801.999878 
z"/>
<path fill="#000000" opacity="1.000000" stroke="none" 
	d="
M826.652832,819.989014 
	C826.654053,781.047852 826.639404,742.605164 826.668335,704.162476 
	C826.675415,694.767639 825.825806,695.769104 835.365112,695.685059 
	C839.817078,695.645874 844.269714,695.678345 848.377258,695.678345 
	C849.866638,697.929443 849.365784,699.814026 849.366821,701.588440 
	C849.391663,743.692261 849.321716,785.796204 849.458923,827.899536 
	C849.472351,832.020630 848.385010,833.591125 844.178406,833.257385 
	C840.210144,832.942566 836.177429,832.969421 832.206787,833.278931 
	C827.712830,833.629272 826.188171,831.738647 826.614929,827.473022 
	C826.845703,825.166321 826.654053,822.817444 826.652832,819.989014 
z"/>
<path fill="#000000" opacity="1.000000" stroke="none" 
	d="
M504.739166,760.125061 
	C498.478455,758.630676 492.763275,759.363037 487.163788,761.282104 
	C478.739868,764.169312 474.360718,769.968750 474.296448,778.830811 
	C474.179382,794.975769 474.133331,811.124084 474.361511,827.266724 
	C474.425446,831.788330 473.124420,833.632507 468.442505,833.256714 
	C464.142639,832.911621 459.789337,833.081543 455.466309,833.225769 
	C452.140167,833.336670 450.666626,832.168213 450.677704,828.624878 
	C450.768433,799.662292 450.763519,770.699280 450.698029,741.736633 
	C450.691223,738.731567 451.759247,737.535278 454.772430,737.634888 
	C459.095306,737.777771 463.446045,737.916931 467.749176,737.589050 
	C472.286957,737.243347 473.758240,739.229858 473.363251,743.415710 
	C473.211548,745.023499 473.338531,746.657532 473.338531,749.771545 
	C481.267059,739.641724 490.842712,736.296265 502.073730,736.585083 
	C506.138214,736.689636 507.747070,737.987732 507.460480,742.186523 
	C507.132538,746.990967 507.409637,751.835510 507.381348,756.662354 
	C507.371979,758.260498 507.806763,760.225769 504.739166,760.125061 
z"/>
<path fill="#000000" opacity="1.000000" stroke="none" 
	d="
M674.036865,737.939148 
	C675.686340,744.526306 674.811462,750.857117 674.897034,757.155823 
	C674.939453,760.283875 672.956482,760.511475 670.448608,759.929199 
	C664.738708,758.603455 659.157349,759.541199 653.774292,761.452942 
	C645.889221,764.253296 641.431335,770.543823 641.375916,778.958130 
	C641.271545,794.786377 641.337280,810.615601 641.315491,826.444458 
	C641.306274,833.163635 641.287048,833.171814 634.364685,833.202820 
	C630.532471,833.219971 626.695496,833.086670 622.869324,833.238892 
	C619.491150,833.373291 618.103088,832.106140 618.132751,828.593628 
	C618.351379,802.617859 618.442200,776.640869 618.568176,750.664307 
	C618.576233,748.998413 618.596008,747.329895 618.520447,745.666687 
	C618.156494,737.645874 618.145630,737.646423 626.387146,737.653809 
	C627.053650,737.654419 627.720093,737.652893 628.386597,737.652832 
	C639.896362,737.651733 639.896362,737.651733 640.548157,749.555603 
	C649.358521,738.700806 660.373840,734.752869 674.036865,737.939148 
z"/>
<path fill="#000000" opacity="1.000000" stroke="none" 
	d="
M687.749146,797.000000 
	C687.749634,778.867615 687.870483,761.233765 687.667114,743.603760 
	C687.615662,739.148682 688.816956,737.253601 693.536865,737.570251 
	C698.823242,737.924927 704.151611,737.651672 709.123413,737.651672 
	C710.854248,739.385681 710.327637,741.140320 710.329590,742.731445 
	C710.363770,770.843445 710.258484,798.956177 710.455811,827.066833 
	C710.489258,831.835205 709.122803,833.737488 704.266846,833.282410 
	C700.638916,832.942444 696.935364,832.978333 693.299133,833.268555 
	C688.798523,833.627747 687.582947,831.688049 687.684875,827.440002 
	C687.924194,817.465210 687.753845,807.480652 687.749146,797.000000 
z"/>
<path fill="#000000" opacity="1.000000" stroke="none" 
	d="
M707.403931,721.673218 
	C701.023010,724.734924 695.082764,724.452393 689.736816,720.448975 
	C685.679565,717.410583 684.605896,712.750916 685.229553,707.956848 
	C686.142212,700.941589 690.552612,697.010803 697.872620,696.067505 
	C703.930054,695.287048 710.100708,698.765320 712.404236,704.258789 
	C715.104248,710.698059 713.360046,717.111816 707.403931,721.673218 
z"/>
<path fill="#000000" opacity="1.000000" stroke="none" 
	d="
M704.976440,296.289032 
	C705.056641,311.851074 698.277527,324.351624 689.344727,335.791107 
	C686.081055,339.970764 685.469299,342.731018 689.093689,347.154816 
	C697.955322,357.971191 706.040894,369.419983 714.760193,380.358093 
	C718.067871,384.507355 718.894287,387.641632 714.803650,391.840027 
	C709.974121,396.796814 705.790161,402.382507 700.735291,408.399017 
	C694.966309,400.684235 689.571777,393.590271 684.309814,386.399323 
	C679.114868,379.299988 674.054077,372.102509 668.375244,364.166626 
	C657.967773,379.179993 648.294006,393.991028 636.683411,408.082458 
	C630.499207,401.344666 625.054810,394.696411 620.245789,387.558685 
	C618.743591,385.328918 620.739807,383.478027 622.024780,381.789185 
	C630.898621,370.126343 639.697144,358.403351 648.765259,346.893005 
	C651.640564,343.243286 651.595459,340.692474 648.575256,337.005859 
	C641.465881,328.327667 635.409302,318.858734 633.433899,307.554382 
	C630.614685,291.420898 633.877380,276.640350 645.205261,264.427032 
	C657.517700,251.152130 683.084595,252.541779 694.264893,266.757660 
	C700.976746,275.291840 703.937256,285.211823 704.976440,296.289032 
M682.259338,296.767487 
	C683.319946,294.326996 684.324463,291.860077 685.456421,289.453156 
	C686.687378,286.835876 685.728455,285.180420 683.523254,283.606110 
	C675.636719,277.975861 661.645447,277.903870 653.757751,283.555023 
	C652.158264,284.701019 650.910156,286.003143 651.570557,288.118622 
	C655.034363,299.214996 661.512207,308.486237 668.923340,317.822510 
	C673.834534,310.748535 678.297180,304.359436 682.259338,296.767487 
z"/>
</svg>