<?xml version="1.0" encoding="UTF-8"?>
<svg version="1.1" xmlns="http://www.w3.org/2000/svg" width="500" height="500">
<path d="M0 0 C3.45820031 1.9073781 6.86106875 3.8956715 10.25170898 5.91943359 C11.50578707 6.65436969 12.76068082 7.38791559 14.01635742 8.12011719 C16.53310732 9.58940483 19.0459943 11.06496541 21.5559082 12.54589844 C26.27855046 15.3276193 31.04639686 18.0286259 35.81420898 20.73193359 C49.28620917 28.4169966 62.66537514 36.26311225 76.04077148 44.11474609 C86.16035222 50.04734305 96.31592656 55.8991101 106.56420898 61.60693359 C117.81881465 67.87523301 128.95770084 74.32667513 140.06713867 80.84814453 C153.33104168 88.63188168 166.61685169 96.37495089 179.97753906 103.99145508 C211.1957157 121.79126679 211.1957157 121.79126679 225.39624023 130.41943359 C228.24199739 132.13472832 231.1213632 133.78347388 234.01342773 135.41943359 C234.87137939 135.90702148 235.72933105 136.39460937 236.61328125 136.89697266 C238.28304366 137.84334543 239.95651167 138.78322138 241.63427734 139.71533203 C247.04973833 142.79093428 253.09278284 146.29836993 255.06420898 152.60693359 C254.83451221 157.08602068 253.09437741 159.39467493 250.06420898 162.60693359 C247.03399614 164.67281598 243.84394103 166.41341101 240.62670898 168.16943359 C238.71772686 169.23561076 236.80887623 170.30202341 234.90014648 171.36865234 C233.92658203 171.90796387 232.95301758 172.44727539 231.94995117 173.00292969 C227.5298213 175.45980391 223.14051648 177.96966463 218.75170898 180.48193359 C217.89673828 180.96976318 217.04176758 181.45759277 216.16088867 181.96020508 C209.37288456 185.83897475 202.62278025 189.78080054 195.87670898 193.73193359 C188.83640138 197.85475746 181.77344454 201.92132326 174.62670898 205.85693359 C167.57564584 209.74021846 160.62283701 213.76681868 153.69702148 217.86865234 C148.41793893 220.99499897 143.11589696 224.08162776 137.81420898 227.16943359 C129.34001718 232.10783723 120.87377564 237.05957217 112.41369629 242.02209473 C91.17215755 254.48157296 69.90342702 266.88472721 48.50073242 279.06591797 C45.91715089 280.53691954 43.33419306 282.00900621 40.75170898 283.48193359 C39.90020264 283.96758789 39.04869629 284.45324219 38.17138672 284.95361328 C30.24697383 289.48353776 22.36524477 294.08590027 14.49658203 298.71191406 C11.69254419 300.3555194 8.87897292 301.98178348 6.06420898 303.60693359 C4.6067627 304.4717334 4.6067627 304.4717334 3.11987305 305.35400391 C2.16564453 305.90411133 1.21141602 306.45421875 0.22827148 307.02099609 C-0.62041504 307.51809082 -1.46910156 308.01518555 -2.34350586 308.52734375 C-5.43762129 309.81592714 -7.61180383 309.92824673 -10.93579102 309.60693359 C-16.51473838 306.44903886 -16.51473838 306.44903886 -17.93579102 303.60693359 C-19.13034605 292.25866079 -14.11421448 281.22670583 -10.65844727 270.59521484 C-10.02929622 268.65910816 -9.40015861 266.72299717 -8.7711792 264.78683472 C-8.33899276 263.45776473 -7.90608976 262.12892755 -7.47247314 260.80032349 C-3.85877189 249.71836256 -0.54845495 238.57673048 2.55175781 227.34008789 C2.8549292 226.24865479 3.15810059 225.15722168 3.47045898 224.03271484 C3.73149414 223.07792236 3.9925293 222.12312988 4.26147461 221.1394043 C5.00897082 218.78119927 5.80000074 216.73170646 7.06420898 214.60693359 C10.0791195 213.09947834 13.18929766 213.471405 16.49560547 213.48095703 C17.26161072 213.4790889 18.02761597 213.47722076 18.8168335 213.47529602 C20.48270264 213.4712882 22.1485773 213.46921683 23.81445122 213.46883392 C27.35160653 213.46542569 30.8885768 213.44407497 34.42566776 213.42360306 C41.01557414 213.38552785 47.60528365 213.35432233 54.1953125 213.35644531 C58.77551755 213.35723074 63.35504699 213.33394258 67.93507576 213.29456329 C69.68257678 213.28407607 71.43015553 213.28259923 73.17767143 213.29021454 C75.62033538 213.29979844 78.06094027 213.27873011 80.50341797 213.25048828 C81.59058861 213.26578331 81.59058861 213.26578331 82.69972229 213.28138733 C84.95469312 213.2901236 84.95469312 213.2901236 88.06420898 212.60693359 C90.79249809 209.43111536 91.091481 208.14328319 90.87670898 203.91943359 C90.35386406 200.55105419 90.35386406 200.55105419 88.06420898 198.60693359 C85.00160683 198.22969812 85.00160683 198.22969812 81.28295898 198.19287109 C80.55611404 198.17350494 79.8292691 198.15413879 79.08039856 198.13418579 C76.57512583 198.07215142 74.06984976 198.02652942 71.56420898 197.98193359 C70.23551285 197.95341309 70.23551285 197.95341309 68.87997437 197.92431641 C50.65833331 197.53548182 32.43610116 197.57283903 14.21151733 197.60006714 C0.16242434 197.62090217 -13.88669334 197.62505723 -27.93579102 197.60693359 C-28.61001602 197.60611031 -29.28424103 197.60528702 -29.97889709 197.60443878 C-37.56427778 197.59367197 -45.14831188 197.55463993 -52.73306274 197.4543457 C-54.72335766 197.43130088 -56.71377218 197.41680207 -58.70419312 197.41137695 C-61.39298172 197.40236784 -64.07950337 197.36270497 -66.76782227 197.31396484 C-67.53498566 197.31789749 -68.30214905 197.32183014 -69.09255981 197.32588196 C-73.00340501 197.21687012 -74.7901981 196.72087431 -77.90722656 194.28149414 C-79.93579102 191.60693359 -79.93579102 191.60693359 -80.56079102 188.10693359 C-79.7589246 183.61648166 -78.50769316 182.39983793 -74.93579102 179.60693359 C-71.97119634 179.05863851 -69.56285506 178.81765492 -66.59326172 178.79614258 C-65.76423245 178.7718666 -64.93520319 178.74759062 -64.08105183 178.722579 C-61.3655715 178.65395 -58.65204909 178.62577202 -55.93579102 178.60693359 C-55.02945797 178.59719135 -54.12312492 178.58744911 -53.18932724 178.57741165 C-47.32266943 178.5211355 -41.45749373 178.52940765 -35.59071922 178.56233406 C-32.3320661 178.58004751 -29.07346397 178.59012075 -25.81477356 178.59825134 C-16.56624565 178.62244718 -7.31778848 178.65855025 1.93066406 178.70288086 C7.62596381 178.7296587 13.32122587 178.74669658 19.01657677 178.75774956 C21.17472436 178.76394304 23.33286462 178.77392786 25.49097633 178.78782845 C28.49566125 178.807048 31.5001447 178.81393961 34.50488281 178.81811523 C35.38853516 178.82687683 36.2721875 178.83563843 37.18261719 178.84466553 C41.8837759 178.83720863 45.64273074 178.4229766 50.06420898 176.60693359 C50.31481088 175.19390122 50.5388282 173.77613886 50.75170898 172.35693359 C50.87932617 171.56802734 51.00694336 170.77912109 51.13842773 169.96630859 C51.0394236 166.81901938 50.29818767 165.81178446 48.06420898 163.60693359 C45.0156923 163.01339068 45.0156923 163.01339068 41.46899414 163.12451172 C40.80359116 163.12059921 40.13818817 163.11668671 39.45262146 163.11265564 C38.00886609 163.10668108 36.56505052 163.10985005 35.12132645 163.12107849 C32.83415788 163.13832774 30.54825484 163.13084067 28.26107788 163.11682129 C22.58013257 163.08715412 16.89942787 163.10035154 11.21844482 163.11199951 C6.41953238 163.12020888 1.62117209 163.11223705 -3.1776619 163.08287048 C-5.42749771 163.07578355 -7.67635808 163.09244598 -9.92611694 163.10998535 C-11.31134563 163.10427583 -12.69657035 163.09745774 -14.08178711 163.08935547 C-15.28741302 163.09253784 -16.49303894 163.09572021 -17.73519897 163.09899902 C-21.55899663 162.51112071 -23.2023939 161.29002567 -25.93579102 158.60693359 C-27.32573181 155.827052 -27.12067306 153.68830099 -26.93579102 150.60693359 C-26.09456131 148.08324448 -25.49703032 146.9757452 -23.27280426 145.51412201 C-20.18502053 144.31549738 -17.60681533 144.35006397 -14.2935791 144.34191895 C-13.62736463 144.33753767 -12.96115016 144.3331564 -12.27474737 144.32864237 C-10.04385496 144.3163271 -7.81319785 144.31813011 -5.58227539 144.31982422 C-3.982281 144.31379975 -2.38228978 144.30687544 -0.78230286 144.29911804 C2.66240875 144.28422941 6.10706238 144.27547996 9.55180359 144.27140808 C14.99728191 144.2646971 20.44263609 144.24294626 25.88806152 144.21887207 C38.43011825 144.16572808 50.97221323 144.13235984 63.51433563 144.09911346 C75.00898607 144.06844075 86.50358332 144.03362033 97.99816465 143.98280287 C103.41287545 143.95943582 108.8274999 143.94570872 114.24225616 143.93930817 C117.60871162 143.93337604 120.97509691 143.91928544 124.34151649 143.90296364 C125.90401106 143.89708037 127.46652275 143.89461693 129.02902794 143.89580345 C131.16016735 143.89696055 133.29091135 143.88596304 135.42199707 143.87194824 C136.61513268 143.86901512 137.80826828 143.866082 139.03755951 143.86306 C141.98348238 143.61376498 143.68005661 143.33393911 146.06420898 141.60693359 C147.11592217 137.89088034 147.42443181 135.57233559 146.0642395 131.92700195 C144.17968378 129.26231524 144.17968378 129.26231524 140.59909058 128.90209961 C139.10898338 128.8410387 137.61754115 128.80888568 136.1262207 128.79833984 C135.29492079 128.77413467 134.46362087 128.7499295 133.60713005 128.72499084 C130.75913855 128.65431779 127.91299327 128.62674168 125.06420898 128.60693359 C124.04515724 128.59619812 123.0261055 128.58546265 121.9761734 128.57440186 C114.97389795 128.5078274 107.97271746 128.50867797 100.97021866 128.5317688 C96.95514548 128.54481331 92.94010742 128.55126889 88.92501831 128.5559082 C79.63480005 128.56781305 70.34461025 128.58949337 61.05441284 128.61213684 C41.05250953 128.66088269 21.05129062 128.67511492 1.0493927 128.6161499 C-2.93939214 128.60692527 -6.92807571 128.60552994 -10.91687012 128.60546875 C-17.19562865 128.60242131 -23.47345591 128.56766417 -29.75192642 128.50827026 C-32.06610879 128.49087735 -34.38039217 128.48361992 -36.6946373 128.48709106 C-39.85687436 128.48985086 -43.01658443 128.45562536 -46.1784668 128.41162109 C-47.10182453 128.42070999 -48.02518227 128.42979889 -48.97652054 128.43916321 C-54.99932579 128.30054982 -54.99932579 128.30054982 -57.64214706 126.34307861 C-60.16948387 123.5113064 -60.92690669 121.86013682 -61.06079102 118.04443359 C-59.64688197 113.72415594 -58.64174989 112.29189012 -54.93579102 109.60693359 C-50.77595734 108.84553598 -46.65370851 108.91712218 -42.43457031 108.94750977 C-41.16587601 108.93702606 -39.8971817 108.92654236 -38.59004211 108.91574097 C-35.11919485 108.8876207 -31.64896612 108.89006123 -28.17803931 108.89803481 C-24.54778431 108.9011619 -20.91772561 108.87611971 -17.28755188 108.8540802 C-10.41698541 108.81664019 -3.54661687 108.80449226 3.32404155 108.8014558 C11.14756222 108.7967649 18.97088463 108.76384065 26.79431784 108.72855794 C42.88426971 108.65662612 58.97409944 108.62010714 75.06420898 108.60693359 C77.40848535 104.49227403 77.40848535 104.49227403 77.93920898 99.91943359 C76.94807094 97.29999733 76.29735957 96.28586229 74.06420898 94.60693359 C71.15164547 94.13873535 71.15164547 94.13873535 67.78857422 94.19042969 C65.84657387 94.16557999 65.84657387 94.16557999 63.86534119 94.14022827 C62.4511621 94.13677505 61.03698259 94.13349343 59.62280273 94.13037109 C58.17455082 94.11606251 56.72631254 94.10030575 55.27809143 94.0831604 C51.46650908 94.04128904 47.65501128 94.01630451 43.84326172 93.9956665 C37.73835864 93.95986202 31.6336642 93.89892186 25.52897835 93.83717728 C23.3940295 93.81806116 21.25913641 93.80634968 19.12413025 93.79574585 C17.83261551 93.7854837 16.54110077 93.77522156 15.21044922 93.76464844 C13.49860695 93.75490494 13.49860695 93.75490494 11.75218201 93.7449646 C9.06420898 93.60693359 9.06420898 93.60693359 7.06420898 92.60693359 C6.22683832 90.51077413 5.4922498 88.37337814 4.80249023 86.22412109 C4.58716141 85.55814911 4.37183258 84.89217712 4.14997864 84.20602417 C3.44427653 82.00949099 2.75223387 79.80906489 2.06420898 77.60693359 C1.83360779 76.86963013 1.60300659 76.13232666 1.36541748 75.37268066 C-0.36101616 69.83242408 -2.05563431 64.28258189 -3.74829102 58.73193359 C-7.59874411 46.13402938 -11.48808034 33.55449528 -15.61279297 21.04296875 C-19.44668443 9.28152867 -19.44668443 9.28152867 -17.81079102 3.91943359 C-13.49822938 -3.69942529 -7.32541274 -3.47599211 0 0 Z " fill="#21142E" transform="translate(153.935791015625,95.39306640625)"/>
<path d="M0 0 C0 0.33 0 0.66 0 1 C-0.94875 1.309375 -1.8975 1.61875 -2.875 1.9375 C-5.86080408 2.87394742 -5.86080408 2.87394742 -8 4 C-8.433125 5.2065625 -8.433125 5.2065625 -8.875 6.4375 C-10 9 -10 9 -12.125 10.3125 C-13.053125 10.6528125 -13.053125 10.6528125 -14 11 C-14.8125 8.3125 -14.8125 8.3125 -15 5 C-9.91388904 -1.18581062 -7.41297285 -1.0760767 0 0 Z " fill="#2B2431" transform="translate(151,94)"/>
<path d="M0 0 C5.77372322 2.83458444 11.45217559 5.74366828 17 9 C14 10 14 10 11 9 C8.3430809 9.87914688 8.3430809 9.87914688 6 11 C6.66 9.35 7.32 7.7 8 6 C6.02 6.99 6.02 6.99 4 8 C4 7.01 4 6.02 4 5 C3.34 5 2.68 5 2 5 C2 5.66 2 6.32 2 7 C1.34 7 0.68 7 0 7 C-1.04449911 3.86650268 -0.93423645 3.01031744 0 0 Z " fill="#372E41" transform="translate(346,207)"/>
<path d="M0 0 C3.12290635 0.48578543 5.99580359 0.9986012 9 2 C3.06 5.3 -2.88 8.6 -9 12 C-9.33 10.68 -9.66 9.36 -10 8 C-9.34 8 -8.68 8 -8 8 C-7.67 7.34 -7.34 6.68 -7 6 C-5.68 6.33 -4.36 6.66 -3 7 C-2.814375 6.0409375 -2.814375 6.0409375 -2.625 5.0625 C-2.41875 4.381875 -2.2125 3.70125 -2 3 C-1.34 2.67 -0.68 2.34 0 2 C0 1.34 0 0.68 0 0 Z " fill="#463F4E" transform="translate(202,368)"/>
<path d="M0 0 C0 0.66 0 1.32 0 2 C-0.99 2.495 -0.99 2.495 -2 3 C-2.40729228 5.32156597 -2.74438677 7.6568787 -3 10 C-2.34 8.68 -1.68 7.36 -1 6 C0.32 6.66 1.64 7.32 3 8 C2.01 10.31 1.02 12.62 0 15 C-3.875 13.25 -3.875 13.25 -5 11 C-5.45833333 4.8125 -5.45833333 4.8125 -3.625 1.5625 C-2 0 -2 0 0 0 Z " fill="#362D3D" transform="translate(79,276)"/>
<path d="M0 0 C-1.95519384 1.17192047 -3.9142539 2.3373929 -5.875 3.5 C-6.96554688 4.1496875 -8.05609375 4.799375 -9.1796875 5.46875 C-12 7 -12 7 -14 7 C-13.875 5.25 -13.875 5.25 -13 3 C-4.92307692 -3.28205128 -4.92307692 -3.28205128 0 0 Z " fill="#30283D" transform="translate(179,388)"/>
<path d="M0 0 C0.94314127 3.41610225 1.08065117 6.45134864 1 10 C0.34 10 -0.32 10 -1 10 C-0.67 10.99 -0.34 11.98 0 13 C-1.9375 16.1875 -1.9375 16.1875 -4 19 C-5.79341438 14.83326479 -4.01173384 11.25336659 -2.5625 7.25 C-2.19801758 6.20392578 -2.19801758 6.20392578 -1.82617188 5.13671875 C-1.22689752 3.42114902 -0.61470115 1.71010285 0 0 Z " fill="#4F4755" transform="translate(142,371)"/>
<path d="M0 0 C0.66 0.99 1.32 1.98 2 3 C1.125 5.5 1.125 5.5 0 8 C0 8.99 0 9.98 0 11 C-0.66 11 -1.32 11 -2 11 C-2 11.99 -2 12.98 -2 14 C-1.34 14 -0.68 14 0 14 C-0.33 14.99 -0.66 15.98 -1 17 C-1.99 16.67 -2.98 16.34 -4 16 C-4.33 16.99 -4.66 17.98 -5 19 C-4.39297368 12.3227105 -2.22368606 6.29872004 0 0 Z " fill="#494050" transform="translate(148,352)"/>
<path d="M0 0 C3.09246438 1.06636703 4.00415447 2.00644659 5.8125 4.8125 C7.07069492 8.18976004 7.0899321 9.63111895 6 13 C5.67 13 5.34 13 5 13 C4.67 11.35 4.34 9.7 4 8 C3.01 8.66 2.02 9.32 1 10 C0.05383672 6.57015811 0 3.55824425 0 0 Z " fill="#322A3A" transform="translate(402,240)"/>
<path d="M0 0 C0.66 0.33 1.32 0.66 2 1 C1.34 2.65 0.68 4.3 0 6 C0.66 6 1.32 6 2 6 C2.2954439 11.02254631 1.98514628 13.89542386 -1 18 C-1.66 17.67 -2.32 17.34 -3 17 C-2.67 16.46375 -2.34 15.9275 -2 15.375 C-0.72351411 12.34334601 -0.66643066 10.26897954 -1 7 C-2.38885248 4.18219466 -2.38885248 4.18219466 -4 2 C-2.125 0.9375 -2.125 0.9375 0 0 Z " fill="#524758" transform="translate(206,256)"/>
<path d="M0 0 C2 2 2 2 2 5 C0.46875 6.38671875 0.46875 6.38671875 -1.5 7.6875 C-2.47453125 8.34298828 -2.47453125 8.34298828 -3.46875 9.01171875 C-3.9740625 9.33785156 -4.479375 9.66398437 -5 10 C-5.66 9.67 -6.32 9.34 -7 9 C-5.25 5.125 -5.25 5.125 -3 4 C-2.67 3.01 -2.34 2.02 -2 1 C-1.34 0.67 -0.68 0.34 0 0 Z " fill="#332A3E" transform="translate(404,251)"/>
<path d="M0 0 C4.97209562 1.76429199 9.43438061 4.3939166 14 7 C13.01 7.66 12.02 8.32 11 9 C11 8.34 11 7.68 11 7 C10.37351562 6.86722656 9.74703125 6.73445312 9.1015625 6.59765625 C8.28429687 6.42105469 7.46703125 6.24445313 6.625 6.0625 C5.81289063 5.88847656 5.00078125 5.71445313 4.1640625 5.53515625 C2 5 2 5 0 4 C0 2.68 0 1.36 0 0 Z " fill="#463D4F" transform="translate(264,160)"/>
<path d="M0 0 C2.97 0.495 2.97 0.495 6 1 C1.80022081 4.6578722 -2.87201939 7.79365864 -8 10 C-8.66 9.67 -9.32 9.34 -10 9 C-9.67 8.34 -9.34 7.68 -9 7 C-7.68 7 -6.36 7 -5 7 C-5 6.34 -5 5.68 -5 5 C-4.01 5 -3.02 5 -2 5 C-1.34 3.35 -0.68 1.7 0 0 Z " fill="#453F49" transform="translate(241,347)"/>
<path d="M0 0 C3.59391114 1.33488128 6.75490696 2.96022723 10 5 C9.67 5.66 9.34 6.32 9 7 C6.69 7 4.38 7 2 7 C1.34 4.69 0.68 2.38 0 0 Z " fill="#382F41" transform="translate(335,201)"/>
<path d="M0 0 C3.45925163 1.2491742 6.14693203 2.67527795 9 5 C2.84765625 5.87890625 2.84765625 5.87890625 1 6 C0 5 0 5 -0.0625 2.4375 C-0.041875 1.633125 -0.02125 0.82875 0 0 Z " fill="#312A3A" transform="translate(376,225)"/>
<path d="M0 0 C2.475 0.495 2.475 0.495 5 1 C5.05410687 2.77049689 5.09284119 4.54146849 5.125 6.3125 C5.14820313 7.29863281 5.17140625 8.28476562 5.1953125 9.30078125 C5 12 5 12 3 15 C2.34 14.67 1.68 14.34 1 14 C1.350625 13.484375 1.70125 12.96875 2.0625 12.4375 C3.38437059 9.00063647 2.77488959 6.5515773 2 3 C1.34 2.01 0.68 1.02 0 0 Z " fill="#57505B" transform="translate(242,293)"/>
<path d="M0 0 C3.45925163 1.2491742 6.14693203 2.67527795 9 5 C8.113125 4.79375 7.22625 4.5875 6.3125 4.375 C2.7747289 3.97449761 1.13367033 4.43316484 -2 6 C-1.34 4.02 -0.68 2.04 0 0 Z " fill="#43394D" transform="translate(354,212)"/>
<path d="M0 0 C3.45925163 1.2491742 6.14693203 2.67527795 9 5 C7.3125 5.6875 7.3125 5.6875 5 6 C2.25 4.75 2.25 4.75 0 3 C0 2.01 0 1.02 0 0 Z M2 5 C2.99 5.495 2.99 5.495 4 6 C3.01 6.495 3.01 6.495 2 7 C2 6.34 2 5.68 2 5 Z " fill="#433C4C" transform="translate(224,137)"/>
<path d="M0 0 C0.33 0 0.66 0 1 0 C1.33 2.64 1.66 5.28 2 8 C2.66 8 3.32 8 4 8 C4.33 9.65 4.66 11.3 5 13 C1.125 11.25 1.125 11.25 0 9 C-0.06950541 7.45976004 -0.08452357 5.91665012 -0.0625 4.375 C-0.05347656 3.55773437 -0.04445312 2.74046875 -0.03515625 1.8984375 C-0.02355469 1.27195312 -0.01195312 0.64546875 0 0 Z " fill="#504554" transform="translate(136,390)"/>
<path d="M0 0 C0.66 0 1.32 0 2 0 C2.33569297 1.62451419 2.6684796 3.24962917 3 4.875 C3.185625 5.77992188 3.37125 6.68484375 3.5625 7.6171875 C4 10 4 10 4 12 C2.68 11.67 1.36 11.34 0 11 C0.185625 9.9275 0.37125 8.855 0.5625 7.75 C0.9304568 4.59608454 1.04465343 2.90181508 0 0 Z " fill="#524754" transform="translate(300,226)"/>
<path d="M0 0 C3.45925163 1.2491742 6.14693203 2.67527795 9 5 C6.36 5 3.72 5 1 5 C0.67 3.35 0.34 1.7 0 0 Z " fill="#504857" transform="translate(290,175)"/>
<path d="M0 0 C0.99 0.33 1.98 0.66 3 1 C3 1.99 3 2.98 3 4 C1.35 4.66 -0.3 5.32 -2 6 C-2.33 4.68 -2.66 3.36 -3 2 C-2.01 1.34 -1.02 0.68 0 0 Z " fill="#2A222F" transform="translate(288,319)"/>
<path d="M0 0 C0.99 0.66 1.98 1.32 3 2 C-1.95 4.475 -1.95 4.475 -7 7 C-7 6.34 -7 5.68 -7 5 C-6.34 5 -5.68 5 -5 5 C-4.67 4.01 -4.34 3.02 -4 2 C-2.68 2 -1.36 2 0 2 C0 1.34 0 0.68 0 0 Z " fill="#352D3C" transform="translate(302,313)"/>
<path d="M0 0 C3.96 1.98 3.96 1.98 8 4 C6.02 4.99 6.02 4.99 4 6 C4 5.34 4 4.68 4 4 C2.68 4.33 1.36 4.66 0 5 C0 3.35 0 1.7 0 0 Z " fill="#423B4A" transform="translate(363,217)"/>
<path d="M0 0 C2.625 0.375 2.625 0.375 5 1 C2.44008376 3.01136276 -0.04590299 4.62845496 -3 6 C-2.42655063 3.13275314 -2.1385485 2.1385485 0 0 Z " fill="#3F3544" transform="translate(195,374)"/>
<path d="M0 0 C0.33 0.66 0.66 1.32 1 2 C1.66 2.33 2.32 2.66 3 3 C-1.75 6 -1.75 6 -4 6 C-4 5.01 -4 4.02 -4 3 C-2 1.3125 -2 1.3125 0 0 Z " fill="#2C2535" transform="translate(278,326)"/>
<path d="M0 0 C3.45925163 1.2491742 6.14693203 2.67527795 9 5 C7.02 5 5.04 5 3 5 C3 4.01 3 3.02 3 2 C2.01 2 1.02 2 0 2 C0 1.34 0 0.68 0 0 Z " fill="#5B5661" transform="translate(205,126)"/>
<path d="M0 0 C0 0.33 0 0.66 0 1 C-2.31 1.66 -4.62 2.32 -7 3 C-7 2.34 -7 1.68 -7 1 C-7.99 0.67 -8.98 0.34 -10 0 C-6.7169902 -1.6415049 -3.57454967 -0.51888624 0 0 Z " fill="#45414A" transform="translate(151,94)"/>
<path d="M0 0 C1.32 1.65 2.64 3.3 4 5 C2.35 5.66 0.7 6.32 -1 7 C-0.67 4.69 -0.34 2.38 0 0 Z " fill="#302737" transform="translate(282,321)"/>
<path d="M0 0 C1.98 0 3.96 0 6 0 C3.31158141 2.25245881 1.35358125 3.88213958 -2 5 C-2 4.34 -2 3.68 -2 3 C-1.34 3 -0.68 3 0 3 C0 2.01 0 1.02 0 0 Z " fill="#3B3340" transform="translate(365,276)"/>
<path d="M0 0 C-0.66 1.32 -1.32 2.64 -2 4 C-3.32 3.34 -4.64 2.68 -6 2 C-6 1.34 -6 0.68 -6 0 C-3 -1 -3 -1 0 0 Z " fill="#1A0F1F" transform="translate(233,206)"/>
<path d="M0 0 C3.45925163 1.2491742 6.14693203 2.67527795 9 5 C5.625 4.75 5.625 4.75 2 4 C0.5625 1.9375 0.5625 1.9375 0 0 Z " fill="#5B5365" transform="translate(278,168)"/>
</svg>
